<svg width="16" height="4" viewBox="0 0 16 4" fill="none" xmlns="http://www.w3.org/2000/svg">
<path d="M8 2.875C8.48325 2.875 8.875 2.48325 8.875 2C8.875 1.51675 8.48325 1.125 8 1.125C7.51675 1.125 7.125 1.51675 7.125 2C7.125 2.48325 7.51675 2.875 8 2.875Z" fill="#121212"/>
<path d="M14.125 2.875C14.6082 2.875 15 2.48325 15 2C15 1.51675 14.6082 1.125 14.125 1.125C13.6418 1.125 13.25 1.51675 13.25 2C13.25 2.48325 13.6418 2.875 14.125 2.875Z" fill="#121212"/>
<path d="M1.875 2.875C2.35825 2.875 2.75 2.48325 2.75 2C2.75 1.51675 2.35825 1.125 1.875 1.125C1.39175 1.125 1 1.51675 1 2C1 2.48325 1.39175 2.875 1.875 2.875Z" fill="#121212"/>
<path d="M8 2.875C8.48325 2.875 8.875 2.48325 8.875 2C8.875 1.51675 8.48325 1.125 8 1.125C7.51675 1.125 7.125 1.51675 7.125 2C7.125 2.48325 7.51675 2.875 8 2.875Z" stroke="#121212" stroke-width="1.5" stroke-linecap="round" stroke-linejoin="round"/>
<path d="M14.125 2.875C14.6082 2.875 15 2.48325 15 2C15 1.51675 14.6082 1.125 14.125 1.125C13.6418 1.125 13.25 1.51675 13.25 2C13.25 2.48325 13.6418 2.875 14.125 2.875Z" stroke="#121212" stroke-width="1.5" stroke-linecap="round" stroke-linejoin="round"/>
<path d="M1.875 2.875C2.35825 2.875 2.75 2.48325 2.75 2C2.75 1.51675 2.35825 1.125 1.875 1.125C1.39175 1.125 1 1.51675 1 2C1 2.48325 1.39175 2.875 1.875 2.875Z" stroke="#121212" stroke-width="1.5" stroke-linecap="round" stroke-linejoin="round"/>
</svg>
