<svg width="56" height="48" viewBox="0 0 56 48" fill="none" xmlns="http://www.w3.org/2000/svg">
<path d="M55.9121 20.044C55.9121 19.92 55.9068 19.796 55.9015 19.6721H55.9068V19.5138C55.7697 14.2708 53.6255 9.36528 49.8672 5.6967C46.1011 2.02286 41.1297 0 35.8681 0C25.3477 0 16.7024 8.14681 15.8927 18.4615H0V48H27.956C35.3327 48 42.2927 45.1517 47.5543 39.9824C52.8026 34.8211 55.7697 27.9323 55.9068 20.5793V20.5609V20.4158C55.9068 20.3895 55.9147 20.3657 55.9147 20.3393V20.044H55.9121ZM41.1429 31.6484C35.28 31.6484 30.4246 27.2782 29.6492 21.6264H52.6391C51.8743 27.3389 47.0453 31.6484 41.1429 31.6484ZM35.8681 3.16484C39.0857 3.16484 42.1714 4.06418 44.8378 5.7389C44.7376 5.71253 44.6321 5.69407 44.5319 5.67033C44.4105 5.64132 44.2866 5.61495 44.1653 5.58857C44.0255 5.55956 43.8857 5.53319 43.7459 5.50681C43.5903 5.4778 43.4321 5.45407 43.2738 5.43297C43.1578 5.41714 43.0391 5.39868 42.9231 5.38286C42.6831 5.35385 42.4431 5.33275 42.2004 5.31429C42.1582 5.31165 42.1187 5.30637 42.0765 5.30374C41.7916 5.28527 41.5015 5.27736 41.2114 5.27736C41.1903 5.27736 41.1692 5.27736 41.1481 5.27736C41.0321 5.27736 40.916 5.28264 40.8 5.28528C40.7024 5.28528 40.6048 5.28527 40.5046 5.29055C40.4809 5.29055 40.4598 5.29319 40.436 5.29582C40.3648 5.29846 40.2963 5.30374 40.2251 5.30901C40.0615 5.31956 39.9007 5.33011 39.7371 5.34593C39.6501 5.35385 39.5631 5.3644 39.476 5.37495C39.3336 5.39077 39.1938 5.40923 39.0514 5.42769C38.9565 5.44088 38.8589 5.4567 38.764 5.46989C38.6347 5.49099 38.5055 5.51473 38.3789 5.53846C38.2787 5.55692 38.1785 5.57538 38.0782 5.59648C37.9516 5.62286 37.8277 5.65451 37.7037 5.68352C37.6062 5.70725 37.5086 5.72835 37.411 5.75473C37.2026 5.81011 36.9943 5.86813 36.7886 5.93143C36.7094 5.95516 36.633 5.98418 36.5538 6.00791C36.4141 6.05275 36.2716 6.10022 36.1319 6.15033C36.058 6.1767 35.9842 6.20571 35.9103 6.23473C35.7626 6.29011 35.6176 6.34813 35.4725 6.40615C35.4145 6.42989 35.3565 6.45626 35.2985 6.48C35.1297 6.55121 34.9635 6.62769 34.8 6.70681C34.7683 6.72264 34.7367 6.73846 34.7024 6.75429C33.4998 7.33714 32.3736 8.07824 31.3662 8.97231C29.3196 10.7868 27.8532 13.0708 27.0567 15.5974C27.0462 15.6264 27.0382 15.658 27.0277 15.687C26.9723 15.869 26.9196 16.051 26.8721 16.233C26.8536 16.2989 26.8352 16.3675 26.8193 16.4334C26.7798 16.5864 26.7455 16.742 26.7112 16.8949C26.6901 16.9925 26.669 17.0901 26.6505 17.1903C26.6242 17.3222 26.6031 17.4541 26.5793 17.5859C26.5582 17.7073 26.5398 17.8312 26.5213 17.9525C26.5055 18.0686 26.4897 18.1873 26.4765 18.3059C26.4607 18.4404 26.4448 18.5776 26.4343 18.7147C26.4237 18.8281 26.4158 18.9415 26.4079 19.0549C26.4 19.1921 26.3921 19.3292 26.3868 19.4664C26.3868 19.5218 26.3789 19.5771 26.3789 19.6325C26.3763 19.767 26.3736 19.9042 26.3736 20.0387V20.0782C26.3736 20.0914 26.3736 20.1046 26.3736 20.1178C26.4185 28.2251 33.0251 34.8079 41.1402 34.8079C42.3956 34.8079 43.6299 34.6497 44.8193 34.3464C44.7112 34.4123 44.6057 34.4809 44.4976 34.5468C44.4554 34.5706 44.4158 34.5969 44.3736 34.6207C44.1653 34.742 43.9543 34.858 43.7433 34.9714C43.6905 34.9978 43.6378 35.0242 43.5877 35.0505C43.4189 35.1376 43.2501 35.222 43.0813 35.3011C43.018 35.3301 42.9547 35.3618 42.8914 35.3908C42.6831 35.4857 42.4721 35.578 42.2585 35.6677C42.2479 35.673 42.2374 35.6756 42.2268 35.6809C42.0053 35.7705 41.7785 35.8549 41.5516 35.9367C41.4857 35.9604 41.4224 35.9815 41.3565 36.0053C41.1824 36.0659 41.0057 36.124 40.8264 36.1767C40.7657 36.1952 40.7051 36.2136 40.6444 36.2321C40.4149 36.3007 40.1829 36.364 39.9508 36.422C39.9086 36.4325 39.8664 36.4404 39.8268 36.451C39.6316 36.4985 39.4338 36.5407 39.236 36.5802C39.1648 36.5934 39.0963 36.6092 39.0251 36.6224C38.8299 36.6593 38.6321 36.6936 38.4343 36.7226C38.3868 36.7306 38.342 36.7385 38.2945 36.7437C38.0545 36.778 37.8145 36.807 37.5719 36.8308C37.5112 36.836 37.4479 36.8413 37.3846 36.8466C37.1947 36.8624 37.0048 36.8782 36.8149 36.8888C36.7437 36.8914 36.6752 36.8967 36.604 36.8993C36.3587 36.9099 36.1108 36.9178 35.8629 36.9178C26.5556 36.9178 18.9837 29.3459 18.9837 20.0387C18.9837 10.7314 26.5609 3.16484 35.8681 3.16484ZM45.3363 37.7248C40.6708 42.3112 34.4993 44.8352 27.956 44.8352C27.7477 44.8352 27.5367 44.8325 27.3284 44.8273C27.2598 44.8273 27.1886 44.822 27.12 44.8193C26.9829 44.8141 26.8431 44.8114 26.7059 44.8035C26.6242 44.7982 26.5424 44.793 26.4607 44.7877C26.3367 44.7798 26.2101 44.7745 26.0862 44.764C25.9991 44.7587 25.9121 44.7481 25.8224 44.7402C25.7037 44.7297 25.5877 44.7218 25.469 44.7086C25.3793 44.7007 25.2897 44.6901 25.2 44.6796C25.0866 44.6664 24.9705 44.6558 24.8571 44.64C24.7675 44.6295 24.6752 44.6163 24.5855 44.6031C24.4747 44.5873 24.3613 44.5741 24.2505 44.5556C24.1582 44.5424 24.0659 44.5266 23.9736 44.5108C23.8655 44.4923 23.7574 44.4765 23.6492 44.458C23.5569 44.4422 23.4646 44.4237 23.3723 44.4079C23.2642 44.3868 23.1587 44.3684 23.0505 44.3473C22.9582 44.3288 22.8686 44.3103 22.7763 44.2892C22.6708 44.2655 22.5653 44.2444 22.4598 44.2207C22.3675 44.1996 22.2778 44.1785 22.1881 44.1574C22.0826 44.1336 21.9798 44.1073 21.8743 44.0809C21.7846 44.0571 21.6923 44.0334 21.6026 44.0097C21.4998 43.9833 21.3969 43.9543 21.2914 43.9253C21.2018 43.8989 21.1121 43.8752 21.0224 43.8488C20.9196 43.8198 20.8167 43.7881 20.7138 43.7565C20.6242 43.7301 20.5371 43.7011 20.4501 43.6747C20.3473 43.6431 20.247 43.6088 20.1442 43.5745C20.0571 43.5455 19.9701 43.5165 19.8831 43.4848C19.7829 43.4506 19.6826 43.4136 19.5798 43.3793C19.4927 43.3477 19.4057 43.316 19.3213 43.2844C19.2211 43.2475 19.1209 43.2079 19.0233 43.171C18.9389 43.1367 18.8519 43.1051 18.7675 43.0708C18.6673 43.0312 18.5697 42.9917 18.4721 42.9495C18.3877 42.9152 18.3033 42.8782 18.2189 42.844C18.1213 42.8018 18.0237 42.7596 17.9262 42.7147C17.8444 42.6778 17.76 42.6409 17.6782 42.604C17.5807 42.5591 17.4831 42.5117 17.3829 42.4668C17.3037 42.4299 17.222 42.3903 17.1429 42.3534C17.0453 42.3059 16.9477 42.2558 16.8501 42.2084C16.771 42.1688 16.6945 42.1292 16.6154 42.0897C16.5178 42.0396 16.4202 41.9868 16.32 41.9341C16.2435 41.8945 16.1697 41.8549 16.0958 41.8127C15.9956 41.7574 15.898 41.702 15.7978 41.6466C15.7266 41.607 15.6554 41.5675 15.5842 41.5253C15.4813 41.4673 15.3811 41.4066 15.2782 41.3459C15.2123 41.3064 15.1437 41.2668 15.0778 41.2273C14.9697 41.1613 14.8615 41.0928 14.7534 41.0242C14.6954 40.9873 14.6374 40.953 14.582 40.916C14.4527 40.8316 14.3235 40.7473 14.1943 40.6602C14.16 40.6365 14.1257 40.6154 14.0941 40.5943C13.9305 40.4835 13.7697 40.3727 13.6088 40.2567C13.6009 40.2514 13.5956 40.2462 13.5877 40.2409C13.4347 40.1328 13.2844 40.022 13.1341 39.9112C13.0866 39.8769 13.0391 39.84 12.9943 39.8031C12.8862 39.7213 12.778 39.6396 12.6699 39.5552C12.6145 39.5103 12.5591 39.4655 12.5011 39.4207C12.4062 39.3442 12.3086 39.2677 12.2136 39.1886C12.153 39.1385 12.0923 39.0857 12.0316 39.0356C11.942 38.9618 11.8549 38.8879 11.7679 38.8114C11.7073 38.7587 11.644 38.7033 11.5833 38.6506C11.4989 38.5767 11.4145 38.5002 11.3301 38.4264C11.2668 38.371 11.2062 38.313 11.1455 38.2549C11.0637 38.1785 10.982 38.1046 10.9029 38.0281C10.8396 37.9701 10.7789 37.9095 10.7182 37.8514C10.6391 37.7749 10.56 37.6985 10.4835 37.622C10.4229 37.5613 10.3622 37.498 10.3015 37.4374C10.2251 37.3609 10.1486 37.2844 10.0747 37.2053C10.0141 37.142 9.95341 37.0787 9.89538 37.0154C9.82154 36.9363 9.74769 36.8598 9.67648 36.7807C9.61582 36.7147 9.5578 36.6488 9.49978 36.5855C9.42857 36.5064 9.35736 36.4273 9.28615 36.3455C9.22813 36.2796 9.17011 36.211 9.11209 36.1451C9.04352 36.0633 8.97495 35.9842 8.90637 35.9024C8.84835 35.8339 8.79297 35.7653 8.73758 35.6967C8.66901 35.6149 8.60308 35.5305 8.53714 35.4462C8.48176 35.3776 8.42637 35.3064 8.37363 35.2378C8.30769 35.1534 8.2444 35.069 8.17846 34.9846C8.12571 34.9134 8.07033 34.8422 8.01758 34.771C7.95429 34.6866 7.89099 34.5996 7.83033 34.5125C7.77758 34.4413 7.72747 34.3701 7.67736 34.2963C7.6167 34.2092 7.55341 34.1196 7.49275 34.0325C7.44264 33.9587 7.39253 33.8875 7.34505 33.8136C7.2844 33.724 7.22637 33.6343 7.16835 33.5446C7.12088 33.4708 7.07077 33.3969 7.0233 33.3231C6.96527 33.2308 6.90725 33.1411 6.85187 33.0488C6.80703 32.9749 6.75956 32.9011 6.71472 32.8246C6.65934 32.7323 6.60396 32.6374 6.54857 32.5424C6.50374 32.4686 6.46154 32.3921 6.4167 32.3182C6.36132 32.2233 6.30857 32.1257 6.25582 32.0281C6.21363 31.9543 6.17143 31.8778 6.13187 31.804C6.07912 31.7064 6.02637 31.6062 5.97363 31.5059C5.93407 31.4321 5.89451 31.3582 5.85758 31.2818C5.80483 31.1789 5.75472 31.076 5.70198 30.9706C5.66505 30.8967 5.62813 30.8255 5.59385 30.7516C5.5411 30.6435 5.49099 30.5327 5.44088 30.4246C5.40923 30.356 5.37494 30.2848 5.3433 30.2163C5.29055 30.0976 5.2378 29.9789 5.18769 29.8602C5.16132 29.7969 5.13231 29.7363 5.10593 29.673C5.04264 29.5253 4.98462 29.3776 4.92396 29.2273C4.91077 29.193 4.89494 29.1587 4.88176 29.1218C4.80791 28.9371 4.73934 28.7525 4.67077 28.5653C4.65494 28.5257 4.64176 28.4835 4.62857 28.4413C4.57582 28.2963 4.52308 28.1486 4.47297 28.0035C4.44923 27.9349 4.42813 27.869 4.40703 27.8004C4.36747 27.6791 4.32527 27.5578 4.28835 27.4365C4.26462 27.36 4.24088 27.2835 4.21978 27.207C4.18549 27.0936 4.15121 26.9802 4.11692 26.8642C4.09319 26.7824 4.07209 26.698 4.04835 26.6163C4.0167 26.5055 3.98769 26.3947 3.95868 26.284C3.93758 26.1969 3.91648 26.1125 3.89275 26.0255C3.86637 25.9174 3.84 25.8092 3.81363 25.7011C3.79253 25.6114 3.77407 25.5218 3.75297 25.4321C3.72923 25.324 3.70549 25.2185 3.68176 25.1103C3.6633 25.018 3.64483 24.9257 3.62637 24.836C3.60527 24.7306 3.58418 24.6251 3.56571 24.5169C3.54989 24.4246 3.53407 24.3297 3.5156 24.2347C3.49714 24.1292 3.47868 24.0211 3.46286 23.9156C3.44703 23.8207 3.43385 23.7257 3.42066 23.6308C3.40483 23.5253 3.38901 23.4171 3.37582 23.3116C3.36264 23.2167 3.35209 23.1191 3.3389 23.0242C3.32571 22.9187 3.31253 22.8106 3.30198 22.7024C3.29143 22.6048 3.28088 22.5073 3.27297 22.4097C3.26242 22.3042 3.25451 22.196 3.24396 22.0906C3.23604 21.993 3.22813 21.8927 3.22286 21.7952C3.22022 21.7398 3.21494 21.6844 3.21231 21.629H15.8848C15.8901 21.7108 15.9033 21.7925 15.9112 21.8743C15.9244 22.0246 15.9402 22.1776 15.9587 22.3279C15.9798 22.5073 16.0009 22.684 16.0273 22.8607C16.0484 23.0084 16.0695 23.156 16.0932 23.3037C16.1222 23.4804 16.1538 23.6571 16.1881 23.8312C16.2171 23.9763 16.2435 24.1213 16.2752 24.2637C16.3121 24.4378 16.3543 24.6119 16.3965 24.7859C16.4308 24.9257 16.4651 25.0681 16.502 25.2079C16.5494 25.382 16.5996 25.5534 16.6497 25.7275C16.6892 25.8646 16.7288 25.9991 16.7736 26.1336C16.829 26.3077 16.8897 26.4791 16.9477 26.6506C16.9925 26.7798 17.0374 26.9116 17.0848 27.0409C17.1508 27.2149 17.2193 27.3864 17.2879 27.5578C17.338 27.6818 17.3855 27.8057 17.4382 27.927C17.5147 28.1037 17.5938 28.2752 17.6756 28.4492C17.7283 28.5626 17.7785 28.6787 17.8338 28.7921C17.9235 28.9741 18.0158 29.1534 18.1108 29.3327C18.1635 29.433 18.2136 29.5358 18.269 29.636C18.3771 29.8338 18.4932 30.029 18.6066 30.2242C18.6514 30.3007 18.6963 30.3798 18.7411 30.4563C19.0708 30.9969 19.4268 31.5218 19.804 32.0281C19.8409 32.0756 19.8804 32.1231 19.9147 32.1706C20.0677 32.371 20.2233 32.5714 20.3842 32.7692C20.4475 32.8484 20.516 32.9222 20.582 33.0013C20.7191 33.1622 20.8563 33.3257 20.9987 33.4813C21.0778 33.5684 21.1596 33.6527 21.2413 33.7398C21.3758 33.8822 21.5077 34.0246 21.6448 34.1644C21.7345 34.2541 21.8268 34.3411 21.9165 34.4281C22.051 34.5574 22.1855 34.6892 22.3226 34.8158C22.4202 34.9055 22.5178 34.9899 22.618 35.0769C22.7552 35.1982 22.8923 35.3169 23.0321 35.4356C23.1349 35.5226 23.2404 35.6044 23.3459 35.6888C23.4857 35.8022 23.6255 35.913 23.7679 36.0211C23.876 36.1029 23.9894 36.1846 24.1002 36.2664C24.2426 36.3692 24.3877 36.4747 24.5327 36.5749C24.6462 36.6541 24.7648 36.7306 24.8809 36.807C25.0286 36.9046 25.1736 36.9996 25.324 37.0919C25.4426 37.1657 25.564 37.2396 25.6853 37.3108C25.8356 37.4004 25.9859 37.4875 26.1389 37.5719C26.2629 37.6404 26.3868 37.709 26.5134 37.7749C26.6664 37.8567 26.822 37.9358 26.9802 38.0149C27.1068 38.0782 27.236 38.1415 27.3653 38.2022C27.5235 38.276 27.6818 38.3473 27.8426 38.4185C27.9745 38.4765 28.1064 38.5345 28.2382 38.5873C28.3991 38.6532 28.5626 38.7165 28.7262 38.7798C28.8607 38.8325 28.9952 38.8826 29.1323 38.9327C29.2985 38.9934 29.4646 39.0488 29.6334 39.1015C29.7705 39.1464 29.9077 39.1912 30.0448 39.2334C30.2163 39.2862 30.3877 39.3336 30.5591 39.3811C30.6989 39.418 30.836 39.4576 30.9758 39.4945C31.1525 39.5393 31.3319 39.5789 31.5086 39.6185C31.6457 39.6501 31.7855 39.6818 31.9226 39.7108C32.1073 39.7477 32.2945 39.7793 32.4791 39.811C32.6163 39.8347 32.7508 39.8611 32.8879 39.8796C33.0831 39.9086 33.2809 39.9323 33.4787 39.956C33.6079 39.9719 33.7371 39.9903 33.8664 40.0035C34.0853 40.0246 34.3068 40.0404 34.531 40.0536C34.6418 40.0615 34.7499 40.0721 34.8607 40.0774C35.193 40.0932 35.5305 40.1037 35.8655 40.1037C36.1582 40.1037 36.451 40.0958 36.7411 40.0826C36.807 40.08 36.873 40.0774 36.9389 40.0747C37.2237 40.0589 37.5086 40.0404 37.7908 40.0141C37.8303 40.0114 37.8699 40.0062 37.9121 40.0009C38.1679 39.9745 38.4237 39.9429 38.6769 39.9086C38.7349 39.9007 38.7956 39.8927 38.8536 39.8848C39.1306 39.8426 39.4075 39.7978 39.6818 39.7424C39.7398 39.7319 39.7952 39.7187 39.8532 39.7081C40.1011 39.658 40.3464 39.6053 40.5916 39.5446C40.6365 39.5341 40.6813 39.5235 40.7235 39.513C40.9952 39.4444 41.2642 39.3706 41.5305 39.2941C41.5938 39.2756 41.6571 39.2571 41.7178 39.2387C41.9789 39.1596 42.24 39.0752 42.4985 38.9855C42.509 38.9802 42.5222 38.9776 42.5327 38.9749C42.7991 38.88 43.0629 38.7798 43.3266 38.6743C43.3872 38.6506 43.4479 38.6242 43.5086 38.6004C43.767 38.4923 44.0255 38.3815 44.2813 38.2655C44.3103 38.2523 44.342 38.2365 44.371 38.2233C44.6057 38.1125 44.8378 37.9965 45.0673 37.8778C45.12 37.8514 45.1727 37.8251 45.2229 37.796C45.2624 37.7749 45.2993 37.7565 45.3389 37.7354L45.3283 37.7459L45.3363 37.7248Z" fill="#F2F2F2"/>
</svg>
