<svg width="16" height="5" viewBox="0 0 16 5" fill="none" xmlns="http://www.w3.org/2000/svg">
<path d="M8 3.375C8.48325 3.375 8.875 2.98325 8.875 2.5C8.875 2.01675 8.48325 1.625 8 1.625C7.51675 1.625 7.125 2.01675 7.125 2.5C7.125 2.98325 7.51675 3.375 8 3.375Z" fill="#F2F2F2"/>
<path d="M14.125 3.375C14.6082 3.375 15 2.98325 15 2.5C15 2.01675 14.6082 1.625 14.125 1.625C13.6418 1.625 13.25 2.01675 13.25 2.5C13.25 2.98325 13.6418 3.375 14.125 3.375Z" fill="#F2F2F2"/>
<path d="M1.875 3.375C2.35825 3.375 2.75 2.98325 2.75 2.5C2.75 2.01675 2.35825 1.625 1.875 1.625C1.39175 1.625 1 2.01675 1 2.5C1 2.98325 1.39175 3.375 1.875 3.375Z" fill="#F2F2F2"/>
<path d="M8 3.375C8.48325 3.375 8.875 2.98325 8.875 2.5C8.875 2.01675 8.48325 1.625 8 1.625C7.51675 1.625 7.125 2.01675 7.125 2.5C7.125 2.98325 7.51675 3.375 8 3.375Z" stroke="#F2F2F2" stroke-width="1.5" stroke-linecap="round" stroke-linejoin="round"/>
<path d="M14.125 3.375C14.6082 3.375 15 2.98325 15 2.5C15 2.01675 14.6082 1.625 14.125 1.625C13.6418 1.625 13.25 2.01675 13.25 2.5C13.25 2.98325 13.6418 3.375 14.125 3.375Z" stroke="#F2F2F2" stroke-width="1.5" stroke-linecap="round" stroke-linejoin="round"/>
<path d="M1.875 3.375C2.35825 3.375 2.75 2.98325 2.75 2.5C2.75 2.01675 2.35825 1.625 1.875 1.625C1.39175 1.625 1 2.01675 1 2.5C1 2.98325 1.39175 3.375 1.875 3.375Z" stroke="#F2F2F2" stroke-width="1.5" stroke-linecap="round" stroke-linejoin="round"/>
</svg>
